{"title":"The Haunting in Connecticut 2 Ghosts of Georgia (2013) 720p Blu-","uid":11055656,"size":951095327,"categoryP":"video","categoryS":"hd___movies","magnet":"?xt=urn:btih:6138d52b336f41f676d9bf90f57cb9e6cac39053&amp;dn=The+Haunting+in+Connecticut+2+Ghosts+of+Georgia+%282013%29+720p+Blu-&amp;tr=udp%3A%2F%2Ftracker.openbittorrent.com%3A80&amp;tr=udp%3A%2F%2Fopen.demonii.com%3A1337&amp;tr=udp%3A%2F%2Ftracker.coppersurfer.tk%3A6969&amp;tr=udp%3A%2F%2Fexodus.desync.com%3A6969","seeders":2,"leechers":0,"uploader":"inovai","files":3,"time":1411104172,"description":"The Haunting in Connecticut 2: Ghosts of Georgia (2013) 720p Blu-Ray x264[Dual-Audio][English 5.1 + Hindi 2.0] - Mafiaking - TeamTNT ExClusive\n\nCover:\n &lt;a href=&quot;\nhttp://forum.primetimeshow.in/viewtopic.php?f=7&amp;t=696&quot; rel=&quot;nofollow&quot; target=&quot;_NEW&quot;&gt;\nhttp://forum.primetimeshow.in/viewtopic.php?f=7&amp;t=696&lt;/a&gt;\n\n-=First On Net=-\n\nOriginal Hindi 2Channel Audio.\n\nIMDB Rating: 5.2/10.0\n\n\nGENRE: Drama | Horror | Thriller\n\nScreenshots:\n &lt;a href=&quot;\nhttp://m.primetimeshow.in/share-762E_541B9FED.html&quot; rel=&quot;nofollow&quot; target=&quot;_NEW&quot;&gt;\nhttp://m.primetimeshow.in/share-762E_541B9FED.html&lt;/a&gt;\n &lt;a href=&quot;\nhttp://m.primetimeshow.in/share-B7BA_541B9FED.html&quot; rel=&quot;nofollow&quot; target=&quot;_NEW&quot;&gt;\nhttp://m.primetimeshow.in/share-B7BA_541B9FED.html&lt;/a&gt;\n &lt;a href=&quot;\nhttp://m.primetimeshow.in/share-0731_541B9FED.html&quot; rel=&quot;nofollow&quot; target=&quot;_NEW&quot;&gt;\nhttp://m.primetimeshow.in/share-0731_541B9FED.html&lt;/a&gt;\n &lt;a href=&quot;\nhttp://m.primetimeshow.in/share-8CDE_541B9FED.html&quot; rel=&quot;nofollow&quot; target=&quot;_NEW&quot;&gt;\nhttp://m.primetimeshow.in/share-8CDE_541B9FED.html&lt;/a&gt;\n &lt;a href=&quot;\nhttp://m.primetimeshow.in/share-49CA_541B9FED.html&quot; rel=&quot;nofollow&quot; target=&quot;_NEW&quot;&gt;\nhttp://m.primetimeshow.in/share-49CA_541B9FED.html&lt;/a&gt;\n\n\nGeneral Info:\nUnique ID : 243267365456886311989288519113298951238 (0xB7039722003476F3B96BC78DB2CC3C46)\nComplete name : The Haunting in Connecticut 2 Ghosts of Georgia (2013) 720p Blu-Ray x264[Dual-Audio][English 5.1 + Hindi 2.0] - Mafiaking - TeamTNT ExClusive.mkv\nFormat : Matroska\nFormat version : Version 4 / Version 2\nFile size : 899 MiB\nDuration : 1h 40mn\nOverall bit rate : 1 245 Kbps\nMovie name : The Haunting in Connecticut 2: Ghosts of Georgia (2013) 720p Blu-Ray x264[Dual-Audio][English 5.1 + Hindi 2.0] - Mafiaking - TeamTNT ExClusive\nEncoded date : UTC 2014-09-17 18:57:43\nWriting application : mkvmerge v7.0.0 ('Where We Going') 32bit built on Jun 9 2014 15:08:34\nWriting library : libebml v1.3.0 + libmatroska v1.4.1\n\n\nVideo\nID : 1\nFormat : AVC\nFormat/Info : Advanced Video Codec\nFormat profile : &lt;a class=&quot;__cf_email__&quot; href=&quot;/cdn-cgi/l/email-protection&quot; data-cfemail=&quot;571f3e303f171b647966&quot;&gt;[email&amp;#160;protected]&lt;/a&gt;&lt;script data-cfhash='f9e31' type=&quot;text/javascript&quot;&gt;\n/* &lt;![CDATA[ */!function(){try{var t=&quot;currentScript&quot;in document?document.currentScript:function(){for(var t=document.getElementsByTagName(&quot;script&quot;),e=t.length;e--;)if(t[e].getAttribute(&quot;data-cfhash&quot;))return t[e]}();if(t&amp;&amp;t.previousSibling){var e,r,n,i,c=t.previousSibling,a=c.getAttribute(&quot;data-cfemail&quot;);if(a){for(e=&quot;&quot;,r=parseInt(a.substr(0,2),16),n=2;a.length-n;n+=2)i=parseInt(a.substr(n,2),16)^r,e+=String.fromCharCode(i);e=document.createTextNode(e),c.parentNode.replaceChild(e,c)}t.parentNode.removeChild(t);}}catch(u){}}()/* ]]&gt; */&lt;/script&gt;\nFormat settings, CABAC : Yes\nFormat settings, ReFrames : 4 frames\nCodec ID : V_MPEG4/ISO/AVC\nDuration : 1h 40mn\nBit rate : 900 Kbps\nWidth : 1 280 pixels\nHeight : 544 pixels\nDisplay aspect ratio : 2.35:1\nFrame rate mode : Constant\nFrame rate : 23.976 fps\nColor space : YUV\nChroma subsampling : 4:2:0\nBit depth : 8 bits\nScan type : Progressive\nBits/(Pixel*Frame) : 0.054\nStream size : 627 MiB (70%)\nTitle : Mafiaking\nLanguage : English\nDefault : Yes\nForced : No\n\n\nAudio #1\nID : 2\nFormat : AC-3\nFormat/Info : Audio Coding 3\nMode extension : CM (complete main)\nFormat settings, Endianness : Big\nCodec ID : A_AC3\nDuration : 1h 40mn\nBit rate mode : Constant\nBit rate : 128 Kbps\nChannel(s) : 2 channels\nChannel positions : Front: L R\nSampling rate : 44.1 KHz\nBit depth : 16 bits\nCompression mode : Lossy\nStream size : 92.4 MiB (10%)\nTitle : Mafiaking\nLanguage : Hindi\nDefault : Yes\nForced : No\n\n\nAudio #2\nID : 3\nFormat : AC-3\nFormat/Info : Audio Coding 3\nMode extension : CM (complete main)\nFormat settings, Endianness : Big\nCodec ID : A_AC3\nDuration : 1h 40mn\nBit rate mode : Constant\nBit rate : 224 Kbps\nChannel(s) : 6 channels\nChannel positions : Front: L C R, Side: L R, LFE\nSampling rate : 48.0 KHz\nBit depth : 16 bits\nCompression mode : Lossy\nStream size : 162 MiB (18%)\nTitle : Mafiaking\nLanguage : English\nDefault : No\nForced : No\n\nSAMPLE WITH IN TORRENT\n\nAll Credits To Mafiaking@TeamTNT !!\n\nSeed n Enjoy!!","torrent":{"xt":"urn:btih:6138d52b336f41f676d9bf90f57cb9e6cac39053","amp;dn":"The+Haunting+in+Connecticut+2+Ghosts+of+Georgia+%282013%29+720p+Blu-","amp;tr":["udp%3A%2F%2Ftracker.openbittorrent.com%3A80","udp%3A%2F%2Fopen.demonii.com%3A1337","udp%3A%2F%2Ftracker.coppersurfer.tk%3A6969","udp%3A%2F%2Fexodus.desync.com%3A6969"],"infoHash":"6138d52b336f41f676d9bf90f57cb9e6cac39053","infoHashBuffer":{"type":"Buffer","data":[97,56,213,43,51,111,65,246,118,217,191,144,245,124,185,230,202,195,144,83]},"announce":[],"urlList":[]}}